<svg width="800" height="1120" viewBox="0 0 800 1120" fill="none" xmlns="http://www.w3.org/2000/svg">
  <rect width="800" height="1120" rx="48" fill="#FFF8EE"/>
  <rect x="44" y="44" width="712" height="1032" rx="34" fill="#FFFDF8" stroke="#5B463A" stroke-width="8"/>
  <rect x="92" y="96" width="180" height="50" rx="25" fill="#FFE8A8" stroke="#5B463A" stroke-width="4"/>
  <text x="182" y="129" text-anchor="middle" font-size="28" font-family="'Microsoft YaHei', sans-serif" font-weight="700" fill="#5B463A">语文冲刺</text>
  <text x="92" y="260" font-size="92" font-family="'Microsoft YaHei', sans-serif" font-weight="800" fill="#2F241D">朱自清</text>
  <text x="92" y="370" font-size="160" font-family="'Microsoft YaHei', sans-serif" font-weight="900" fill="#FF6F8E">春</text>
  <text x="92" y="438" font-size="42" font-family="'Microsoft YaHei', sans-serif" font-weight="700" fill="#6E5A4F">考霸背诵与赏析卡</text>
  <rect x="92" y="500" width="616" height="178" rx="28" fill="#FFF2D7" stroke="#5B463A" stroke-width="4"/>
  <text x="128" y="556" font-size="34" font-family="'Microsoft YaHei', sans-serif" font-weight="700" fill="#5B463A">结构链</text>
  <text x="128" y="614" font-size="38" font-family="'Microsoft YaHei', sans-serif" font-weight="800" fill="#FF6F8E">盼 → 醒 → 草 → 花 → 风 → 雨 → 人 → 赞</text>
  <text x="128" y="658" font-size="26" font-family="'Microsoft YaHei', sans-serif" font-weight="600" fill="#6E5A4F">背诵不散，答题不空，赏析有抓手</text>
  <rect x="92" y="736" width="292" height="234" rx="28" fill="#FCE8EE" stroke="#5B463A" stroke-width="4"/>
  <rect x="416" y="736" width="292" height="234" rx="28" fill="#EAF6EE" stroke="#5B463A" stroke-width="4"/>
  <text x="126" y="794" font-size="30" font-family="'Microsoft YaHei', sans-serif" font-weight="800" fill="#5B463A">高频题眼</text>
  <text x="126" y="850" font-size="24" font-family="'Microsoft YaHei', sans-serif" font-weight="600" fill="#6E5A4F">• 比喻、拟人、排比</text>
  <text x="126" y="890" font-size="24" font-family="'Microsoft YaHei', sans-serif" font-weight="600" fill="#6E5A4F">• 多感官写景</text>
  <text x="126" y="930" font-size="24" font-family="'Microsoft YaHei', sans-serif" font-weight="600" fill="#6E5A4F">• 由物到人、由景到情</text>
  <text x="450" y="794" font-size="30" font-family="'Microsoft YaHei', sans-serif" font-weight="800" fill="#5B463A">提分动作</text>
  <text x="450" y="850" font-size="24" font-family="'Microsoft YaHei', sans-serif" font-weight="600" fill="#6E5A4F">• 先背结构再背句子</text>
  <text x="450" y="890" font-size="24" font-family="'Microsoft YaHei', sans-serif" font-weight="600" fill="#6E5A4F">• 赏析先点手法再点效果</text>
  <text x="450" y="930" font-size="24" font-family="'Microsoft YaHei', sans-serif" font-weight="600" fill="#6E5A4F">• 结尾三喻单独记牢</text>
  <path d="M604 204C640 186 675 204 686 236C697 268 675 303 639 316C608 327 578 313 561 291C540 266 541 223 574 208C586 203 595 201 604 204Z" fill="#FFD86E" stroke="#5B463A" stroke-width="4"/>
  <path d="M607 226C622 215 648 216 661 234C676 255 667 284 647 296C629 307 605 302 591 286C576 268 584 241 607 226Z" fill="#FFF6CC"/>
  <circle cx="177" cy="189" r="18" fill="#FF9EB2"/>
  <circle cx="219" cy="188" r="12" fill="#A1D8B3"/>
  <circle cx="247" cy="219" r="10" fill="#8AB8FF"/>
  <path d="M104 1026C198 952 304 922 403 938C515 956 601 1007 696 1026" stroke="#5B463A" stroke-width="6" stroke-linecap="round"/>
  <text x="400" y="1066" text-anchor="middle" font-size="26" font-family="'Microsoft YaHei', sans-serif" font-weight="700" fill="#6E5A4F">Bella Read · Chinese Study Notes</text>
</svg>
